<?xml version="1.0" encoding="iso-8859-1"?>
<!-- Generator: Adobe Illustrator 25.4.1, SVG Export Plug-In . SVG Version: 6.00 Build 0)  -->
<svg version="1.1" id="Layer_1" xmlns="http://www.w3.org/2000/svg" xmlns:xlink="http://www.w3.org/1999/xlink" x="0px" y="0px"
	 viewBox="0 0 266 188" style="enable-background:new 0 0 266 188;" xml:space="preserve">
<g>
	<defs>
		<rect id="SVGID_1_" x="112.874" y="43.001" width="40.251" height="43.367"/>
	</defs>
	<clipPath id="SVGID_00000059281195795722237780000012383915827558542752_">
		<use xlink:href="#SVGID_1_"  style="overflow:visible;"/>
	</clipPath>
	<path style="clip-path:url(#SVGID_00000059281195795722237780000012383915827558542752_);fill:#002361;" d="M133.878,86.021
		c1.061-0.586,2.34-1.393,3.725-2.438V71.05l-3.725-2.478V86.021z"/>
	<path style="clip-path:url(#SVGID_00000059281195795722237780000012383915827558542752_);fill:#002361;" d="M133.878,59.894
		l3.725,2.48v-6.333c-1.24-0.058-2.482-0.091-3.725-0.101V59.894z"/>
	<path style="clip-path:url(#SVGID_00000059281195795722237780000012383915827558542752_);fill:#002361;" d="M145.055,56.7
		c-1.238-0.159-2.48-0.288-3.727-0.397v8.551l3.727,2.481V56.7z"/>
	<path style="clip-path:url(#SVGID_00000059281195795722237780000012383915827558542752_);fill:#002361;" d="M141.329,73.53v6.816
		c1.253-1.246,2.515-2.687,3.727-4.326v-0.011L141.329,73.53z"/>
	<path style="clip-path:url(#SVGID_00000059281195795722237780000012383915827558542752_);fill:#002361;" d="M145.055,76.02
		c0.002-0.002,0.003-0.004,0.005-0.01l-0.005-0.002V76.02z"/>
	<path style="clip-path:url(#SVGID_00000059281195795722237780000012383915827558542752_);fill:#002361;" d="M148.777,57.262v12.552
		l0.011,0.006c1.625-3.366,2.936-7.294,3.674-11.862l-0.127-0.025C151.157,57.686,149.969,57.465,148.777,57.262"/>
	<polygon style="clip-path:url(#SVGID_00000059281195795722237780000012383915827558542752_);fill:#002361;" points="
		137.604,62.377 137.604,71.052 141.329,73.53 141.329,64.855 	"/>
	<path style="clip-path:url(#SVGID_00000059281195795722237780000012383915827558542752_);fill:#002361;" d="M145.055,67.335v8.674
		l0.005,0.002c1.332-1.801,2.598-3.854,3.717-6.172v-0.025L145.055,67.335z"/>
	<path style="clip-path:url(#SVGID_00000059281195795722237780000012383915827558542752_);fill:#002361;" d="M148.777,69.839
		c0.005-0.006,0.008-0.014,0.011-0.02l-0.011-0.005V69.839z"/>
	<path style="clip-path:url(#SVGID_00000059281195795722237780000012383915827558542752_);fill:#002361;" d="M125.704,71.616
		c1.1-0.305,2.067-0.918,2.807-1.746c-0.406-0.147-0.88-0.293-1.428-0.414C126.678,70.356,126.168,71.075,125.704,71.616"/>
	<path style="clip-path:url(#SVGID_00000059281195795722237780000012383915827558542752_);fill:#002361;" d="M119.793,69.872
		c0.74,0.828,1.71,1.443,2.811,1.746c-0.464-0.543-0.975-1.262-1.381-2.164C120.674,69.577,120.2,69.724,119.793,69.872"/>
	<path style="clip-path:url(#SVGID_00000059281195795722237780000012383915827558542752_);fill:#002361;" d="M123.612,60.836
		c-0.405,0.445-0.879,1.072-1.274,1.864c0.399,0.053,0.823,0.09,1.274,0.106V60.836z"/>
	<path style="clip-path:url(#SVGID_00000059281195795722237780000012383915827558542752_);fill:#002361;" d="M127.459,68.44
		c0.672,0.158,1.245,0.346,1.712,0.531c0.438-0.732,0.724-1.56,0.806-2.453h-2.173C127.76,67.213,127.637,67.856,127.459,68.44"/>
	<path style="clip-path:url(#SVGID_00000059281195795722237780000012383915827558542752_);fill:#002361;" d="M122.603,60.344
		c-1.101,0.303-2.07,0.919-2.811,1.747c0.408,0.147,0.881,0.293,1.43,0.415C121.628,61.606,122.139,60.887,122.603,60.344"/>
	<path style="clip-path:url(#SVGID_00000059281195795722237780000012383915827558542752_);fill:#002361;" d="M128.51,62.091
		c-0.739-0.827-1.707-1.442-2.807-1.745c0.464,0.542,0.976,1.262,1.38,2.16C127.631,62.385,128.105,62.238,128.51,62.091"/>
	<path style="clip-path:url(#SVGID_00000059281195795722237780000012383915827558542752_);fill:#002361;" d="M127.803,65.444h2.173
		c-0.082-0.892-0.367-1.722-0.806-2.453c-0.467,0.184-1.039,0.372-1.712,0.53C127.636,64.106,127.759,64.748,127.803,65.444"/>
	<path style="clip-path:url(#SVGID_00000059281195795722237780000012383915827558542752_);fill:#002361;" d="M124.687,71.132
		c0.406-0.445,0.885-1.072,1.282-1.869c-0.401-0.053-0.829-0.09-1.282-0.108V71.132z"/>
	<path style="clip-path:url(#SVGID_00000059281195795722237780000012383915827558542752_);fill:#002361;" d="M123.612,66.518h-2.033
		c0.047,0.623,0.169,1.195,0.34,1.717c0.52-0.08,1.085-0.133,1.693-0.155V66.518z"/>
	<path style="clip-path:url(#SVGID_00000059281195795722237780000012383915827558542752_);fill:#002361;" d="M124.687,68.081
		c0.61,0.021,1.179,0.074,1.701,0.154c0.17-0.521,0.293-1.093,0.339-1.716h-2.04V68.081z"/>
	<path style="clip-path:url(#SVGID_00000059281195795722237780000012383915827558542752_);fill:#002361;" d="M125.973,62.7
		c-0.397-0.801-0.878-1.432-1.286-1.875v1.98C125.142,62.79,125.572,62.753,125.973,62.7"/>
	<path style="clip-path:url(#SVGID_00000059281195795722237780000012383915827558542752_);fill:#002361;" d="M126.727,65.444
		c-0.046-0.624-0.167-1.197-0.337-1.718c-0.523,0.079-1.092,0.134-1.703,0.156v1.562H126.727z"/>
	<path style="clip-path:url(#SVGID_00000059281195795722237780000012383915827558542752_);fill:#002361;" d="M122.338,69.262
		c0.396,0.789,0.869,1.416,1.274,1.863v-1.97C123.16,69.174,122.736,69.21,122.338,69.262"/>
	<path style="clip-path:url(#SVGID_00000059281195795722237780000012383915827558542752_);fill:#002361;" d="M120.847,63.521
		c-0.675-0.158-1.247-0.346-1.717-0.53c-0.435,0.731-0.721,1.561-0.804,2.453h2.176C120.546,64.748,120.669,64.106,120.847,63.521"
		/>
	<path style="clip-path:url(#SVGID_00000059281195795722237780000012383915827558542752_);fill:#002361;" d="M123.612,63.882
		c-0.608-0.021-1.173-0.076-1.693-0.155c-0.171,0.521-0.293,1.093-0.34,1.717h2.033V63.882z"/>
	<path style="clip-path:url(#SVGID_00000059281195795722237780000012383915827558542752_);fill:#002361;" d="M120.503,66.518h-2.176
		c0.083,0.893,0.368,1.721,0.804,2.453c0.47-0.185,1.042-0.373,1.717-0.533C120.67,67.856,120.547,67.213,120.503,66.518"/>
	<path style="clip-path:url(#SVGID_00000059281195795722237780000012383915827558542752_);fill:#002361;" d="M113.537,57.964
		c2.735,16.902,13.316,25.15,18.586,28.056V55.94c-6.229,0.058-12.435,0.725-18.457,1.996L113.537,57.964z M124.15,59.054
		c3.82,0,6.928,3.107,6.928,6.927c0,3.816-3.108,6.926-6.928,6.926c-3.819,0-6.926-3.11-6.926-6.926
		C117.224,62.161,120.331,59.054,124.15,59.054"/>
	<path style="clip-path:url(#SVGID_00000059281195795722237780000012383915827558542752_);fill:#002361;" d="M152.323,45.043
		l-0.014-0.007c-6.229-1.329-12.687-2.035-19.309-2.035c-6.632,0-13.098,0.708-19.332,2.042l-0.027,0.007
		c-0.44,0.109-0.766,0.506-0.766,0.981l0.002,3.494c0,2.295,0.139,4.461,0.39,6.515c6.474-1.37,13.113-2.054,19.751-2.054
		c6.63,0,13.259,0.684,19.718,2.048c0.248-2.05,0.388-4.216,0.388-6.509l0.001-3.494C153.125,45.544,152.781,45.137,152.323,45.043
		 M147.971,53.691c-4.845-0.92-10.411-1.202-14.969-1.202h-0.004c-4.558,0-10.125,0.282-14.968,1.202
		c-0.183,0.037-0.345-0.13-0.244-0.324l3.187-7.036c0.032-0.065,2.091-1.084,2.091-1.084c2.617-0.55,6.925-0.308,9.931,0.798h0.011
		c3.006-1.106,7.313-1.348,9.93-0.798c0,0,2.058,1.019,2.091,1.084l3.185,7.036C148.315,53.561,148.154,53.728,147.971,53.691"/>
	<path style="clip-path:url(#SVGID_00000059281195795722237780000012383915827558542752_);fill:#002361;" d="M142.106,46.454
		l1.34,3.588c-3.122-0.429-5.709-0.234-9.528,1.017v0.336c3.609-0.136,8.173-0.337,11.863,0.456l-2.011-4.625L142.106,46.454z"/>
	<path style="clip-path:url(#SVGID_00000059281195795722237780000012383915827558542752_);fill:#002361;" d="M122.51,50.042
		l1.34-3.588l-1.663,0.773l-2.011,4.625c3.688-0.794,8.253-0.593,11.861-0.456V51.06C128.219,49.808,125.631,49.613,122.51,50.042"
		/>
</g>
<g>
	<defs>
		<rect id="SVGID_00000139990349057628564260000017103013261566941375_" x="43" y="93.168" width="180" height="24.58"/>
	</defs>
	<clipPath id="SVGID_00000054245599042160315470000011484094731166448780_">
		<use xlink:href="#SVGID_00000139990349057628564260000017103013261566941375_"  style="overflow:visible;"/>
	</clipPath>
	<path style="clip-path:url(#SVGID_00000054245599042160315470000011484094731166448780_);fill:#002361;" d="M48.148,97.578
		c0-3.159-0.283-3.5-1.963-3.643l-0.71-0.056c-0.171-0.114-0.114-0.626,0.057-0.711c1.649,0.056,2.616,0.085,3.811,0.085
		c1.139,0,2.106-0.029,3.243-0.085c0.171,0.085,0.229,0.597,0.058,0.711l-0.427,0.056c-1.678,0.229-1.735,0.625-1.735,3.643v10.555
		c0,2.246-0.115,4.209-0.654,5.517c-0.94,2.278-2.959,4.098-5.606,4.098c-0.34,0-1.222-0.029-1.222-0.598
		c0-0.484,0.425-1.31,1.023-1.31c0.342,0,0.684,0.056,1.054,0.172c0.398,0.113,0.796,0.199,1.194,0.199
		c0.598,0,0.94-0.342,1.139-0.74c0.654-1.338,0.738-5.604,0.738-7.141V97.578z"/>
	<path style="clip-path:url(#SVGID_00000054245599042160315470000011484094731166448780_);fill:#002361;" d="M52.584,104.277
		c0-4.799,3.601-8.472,8.544-8.472c5.544,0,8.328,4.008,8.328,8.232c0,4.848-3.695,8.375-8.328,8.375
		C55.8,112.412,52.584,108.597,52.584,104.277 M67.056,104.781c0-3.959-1.752-8.232-6.336-8.232c-2.496,0-5.735,1.705-5.735,6.961
		c0,3.55,1.727,8.16,6.456,8.16C64.321,111.67,67.056,109.51,67.056,104.781"/>
	<path style="clip-path:url(#SVGID_00000054245599042160315470000011484094731166448780_);fill:#002361;" d="M74.908,104.277
		c-1.151,0-1.2,0.049-1.2,0.77v3.382c0,2.52,0.12,2.856,1.463,3l0.697,0.073c0.144,0.095,0.096,0.527-0.048,0.599
		c-1.296-0.049-2.112-0.072-3.049-0.072c-1.031,0-1.848,0.049-2.784,0.072c-0.143-0.072-0.191-0.457-0.047-0.599l0.408-0.073
		c1.343-0.24,1.392-0.48,1.392-3v-8.64c0-2.52-0.168-2.927-1.416-3.024L69.7,96.717c-0.145-0.096-0.096-0.528,0.047-0.6
		c1.176,0.023,1.993,0.072,3.024,0.072c0.937,0,1.753-0.023,2.784-0.072c0.145,0.072,0.194,0.504,0.048,0.6l-0.456,0.048
		c-1.39,0.144-1.439,0.504-1.439,3.024v2.761c0,0.743,0.049,0.768,1.2,0.768h6.864c1.152,0,1.199-0.025,1.199-0.768v-2.761
		c0-2.52-0.047-2.88-1.463-3.024l-0.456-0.048c-0.144-0.096-0.096-0.528,0.048-0.6c1.104,0.049,1.919,0.072,2.903,0.072
		c0.937,0,1.753-0.023,2.833-0.072c0.143,0.072,0.192,0.504,0.048,0.6l-0.504,0.048c-1.392,0.144-1.44,0.504-1.44,3.024v8.64
		c0,2.52,0.048,2.832,1.44,3l0.576,0.073c0.143,0.095,0.096,0.527-0.049,0.599c-1.151-0.049-1.967-0.072-2.904-0.072
		c-0.984,0-1.847,0.023-2.903,0.072c-0.144-0.072-0.192-0.457-0.048-0.599l0.456-0.073c1.463-0.24,1.463-0.48,1.463-3v-3.382
		c0-0.721-0.047-0.77-1.199-0.77H74.908z"/>
	<path style="clip-path:url(#SVGID_00000054245599042160315470000011484094731166448780_);fill:#002361;" d="M103.349,107.949
		c0,0.721,0,3.576,0.072,4.199c-0.047,0.145-0.191,0.264-0.455,0.264c-0.289-0.406-0.984-1.246-3.072-3.623l-5.568-6.336
		c-0.649-0.744-2.28-2.712-2.784-3.238h-0.048c-0.096,0.287-0.12,0.838-0.12,1.558v5.233c0,1.127,0.024,4.248,0.432,4.966
		c0.145,0.266,0.624,0.409,1.224,0.457l0.743,0.073c0.145,0.191,0.121,0.48-0.047,0.599c-1.08-0.048-1.92-0.072-2.808-0.072
		c-1.008,0-1.657,0.024-2.497,0.072c-0.167-0.119-0.191-0.457-0.047-0.599l0.648-0.073c0.552-0.072,0.936-0.216,1.056-0.48
		c0.335-0.863,0.312-3.791,0.312-4.943V99.07c0-0.673-0.023-1.178-0.528-1.728c-0.336-0.336-0.911-0.505-1.488-0.577l-0.409-0.047
		c-0.143-0.144-0.143-0.503,0.049-0.601c1.008,0.072,2.28,0.072,2.712,0.072c0.384,0,0.792-0.023,1.103-0.072
		c0.481,1.225,3.313,4.393,4.105,5.281l2.327,2.615c1.656,1.848,2.832,3.192,3.961,4.344h0.047c0.097-0.119,0.097-0.504,0.097-1.008
		v-5.136c0-1.128-0.025-4.247-0.48-4.968c-0.144-0.216-0.529-0.36-1.488-0.48l-0.408-0.047c-0.168-0.144-0.145-0.529,0.047-0.601
		c1.105,0.049,1.921,0.072,2.833,0.072c1.032,0,1.655-0.023,2.471-0.072c0.192,0.121,0.192,0.457,0.049,0.601l-0.336,0.047
		c-0.768,0.12-1.249,0.313-1.345,0.504c-0.407,0.864-0.36,3.84-0.36,4.944V107.949z"/>
	<path style="clip-path:url(#SVGID_00000054245599042160315470000011484094731166448780_);fill:#002361;" d="M109.692,112.412
		c-2.016,0-3.287-0.623-3.744-0.887c-0.287-0.529-0.6-2.232-0.649-3.359c0.122-0.17,0.481-0.217,0.577-0.072
		c0.36,1.222,1.343,3.576,4.128,3.576c2.016,0,3.001-1.321,3.001-2.76c0-1.057-0.216-2.232-1.969-3.361l-2.28-1.489
		c-1.199-0.791-2.591-2.16-2.591-4.127c0-2.28,1.775-4.127,4.895-4.127c0.744,0,1.609,0.144,2.233,0.311
		c0.311,0.098,0.647,0.145,0.838,0.145c0.216,0.575,0.433,1.92,0.433,2.927c-0.096,0.145-0.48,0.216-0.601,0.073
		c-0.311-1.153-0.958-2.713-3.263-2.713c-2.352,0-2.856,1.56-2.856,2.666c0,1.39,1.153,2.398,2.04,2.951l1.92,1.199
		c1.513,0.936,3,2.328,3,4.608C114.804,110.613,112.812,112.412,109.692,112.412"/>
	<path style="clip-path:url(#SVGID_00000054245599042160315470000011484094731166448780_);fill:#002361;" d="M129.049,102.842
		c-1.365,0-1.422,0.055-1.422,0.908v4.012c0,2.986,0.142,3.385,1.735,3.557l0.826,0.086c0.17,0.113,0.114,0.625-0.058,0.708
		c-1.536-0.056-2.503-0.083-3.612-0.083c-1.224,0-2.192,0.056-3.301,0.083c-0.171-0.083-0.228-0.539-0.057-0.708l0.484-0.086
		c1.592-0.286,1.65-0.571,1.65-3.557V97.52c0-2.987-0.199-3.471-1.678-3.584l-0.74-0.057c-0.171-0.113-0.114-0.626,0.057-0.711
		c1.393,0.028,2.361,0.085,3.585,0.085c1.109,0,2.076-0.028,3.3-0.085c0.17,0.085,0.227,0.598,0.055,0.711l-0.54,0.057
		c-1.649,0.172-1.706,0.597-1.706,3.584v3.272c0,0.882,0.057,0.909,1.422,0.909h8.137c1.365,0,1.422-0.027,1.422-0.909V97.52
		c0-2.987-0.057-3.412-1.736-3.584l-0.541-0.057c-0.17-0.113-0.113-0.626,0.058-0.711c1.307,0.057,2.276,0.085,3.442,0.085
		c1.11,0,2.077-0.028,3.358-0.085c0.17,0.085,0.227,0.598,0.055,0.711l-0.596,0.057c-1.65,0.172-1.707,0.597-1.707,3.584v10.242
		c0,2.986,0.057,3.357,1.707,3.557l0.682,0.086c0.171,0.113,0.115,0.625-0.057,0.708c-1.365-0.056-2.332-0.083-3.442-0.083
		c-1.166,0-2.19,0.027-3.442,0.083c-0.171-0.083-0.228-0.539-0.058-0.708l0.541-0.086c1.736-0.286,1.736-0.571,1.736-3.557v-4.012
		c0-0.853-0.057-0.908-1.422-0.908H129.049z"/>
	<path style="clip-path:url(#SVGID_00000054245599042160315470000011484094731166448780_);fill:#002361;" d="M143.15,104.277
		c0-4.799,3.602-8.472,8.544-8.472c5.545,0,8.328,4.008,8.328,8.232c0,4.848-3.695,8.375-8.328,8.375
		C146.367,112.412,143.15,108.597,143.15,104.277 M157.622,104.781c0-3.959-1.751-8.232-6.336-8.232
		c-2.495,0-5.735,1.705-5.735,6.961c0,3.55,1.728,8.16,6.456,8.16C154.888,111.67,157.622,109.51,157.622,104.781"/>
	<path style="clip-path:url(#SVGID_00000054245599042160315470000011484094731166448780_);fill:#002361;" d="M164.366,108.43
		c0,2.52,0.048,2.832,1.584,3l0.648,0.072c0.144,0.119,0.097,0.528-0.048,0.6c-1.368-0.049-2.16-0.072-3.12-0.072
		c-1.008,0-1.872,0.023-2.927,0.072c-0.145-0.072-0.193-0.457-0.048-0.6l0.504-0.072c1.391-0.191,1.439-0.48,1.439-3v-8.855
		c0-2.041-0.048-2.449-1.128-2.569l-0.864-0.097c-0.168-0.143-0.144-0.503,0.049-0.599c1.271-0.169,2.76-0.193,4.751-0.193
		c1.992,0,3.48,0.264,4.608,0.961c1.104,0.696,1.92,1.944,1.92,3.599c0,2.208-1.367,3.314-2.4,3.817
		c-1.056,0.504-2.327,0.719-3.312,0.719c-0.168-0.07-0.168-0.431-0.024-0.478c2.592-0.481,3.528-1.946,3.528-4.033
		c0-2.329-1.368-3.839-3.863-3.839c-1.273,0-1.297,0.094-1.297,0.864V108.43z"/>
	<path style="clip-path:url(#SVGID_00000054245599042160315470000011484094731166448780_);fill:#002361;" d="M174.352,99.789
		c0-2.52-0.049-2.904-1.44-3.023l-0.601-0.048c-0.144-0.097-0.095-0.529,0.048-0.601c1.176,0.049,1.944,0.072,3.023,0.072
		c0.937,0,1.753-0.023,2.785-0.072c0.144,0.072,0.193,0.504,0.047,0.601l-0.455,0.048c-1.392,0.143-1.44,0.503-1.44,3.023v2.762
		c0,0.455,0.048,0.91,0.313,0.91c0.215,0,0.503-0.143,0.671-0.264c0.336-0.287,0.96-0.912,1.225-1.152l2.591-2.567
		c0.456-0.433,1.632-1.657,1.872-1.992c0.121-0.169,0.169-0.289,0.169-0.385c0-0.095-0.096-0.167-0.409-0.239l-0.648-0.144
		c-0.168-0.169-0.144-0.48,0.048-0.601c0.84,0.049,1.8,0.072,2.64,0.072s1.656-0.023,2.375-0.072
		c0.169,0.121,0.193,0.457,0.049,0.601c-0.624,0.048-1.559,0.288-2.231,0.672c-0.672,0.383-2.018,1.511-3.361,2.784l-2.16,2.039
		c-0.336,0.338-0.552,0.553-0.552,0.744c0,0.17,0.144,0.361,0.456,0.744c2.28,2.615,4.128,4.776,6.001,6.744
		c0.576,0.576,1.012,0.889,1.828,0.985l0.463,0.072c0.169,0.119,0.12,0.527-0.049,0.6c-0.624-0.049-1.282-0.073-2.41-0.073
		c-0.984,0-1.826,0.024-2.929,0.073c-0.168-0.049-0.239-0.458-0.096-0.6l0.552-0.098c0.337-0.047,0.576-0.119,0.576-0.238
		c0-0.145-0.168-0.336-0.337-0.553c-0.456-0.576-1.079-1.224-1.991-2.256l-1.92-2.16c-1.368-1.535-1.752-2.015-2.328-2.015
		c-0.36,0-0.408,0.312-0.408,1.152v3.096c0,2.519,0.048,2.855,1.392,3l0.649,0.072c0.142,0.096,0.096,0.527-0.049,0.6
		c-1.176-0.049-1.992-0.073-2.929-0.073c-0.983,0-1.799,0.024-2.783,0.073c-0.143-0.073-0.192-0.432-0.048-0.6l0.481-0.072
		c1.271-0.192,1.32-0.481,1.32-3V99.789z"/>
	<path style="clip-path:url(#SVGID_00000054245599042160315470000011484094731166448780_);fill:#002361;" d="M190.825,99.838
		c0-2.544-0.048-2.953-1.465-3.072l-0.598-0.048c-0.145-0.097-0.097-0.528,0.046-0.601c1.201,0.049,2.017,0.073,3.025,0.073
		c0.96,0,1.776-0.024,2.975-0.073c0.145,0.073,0.193,0.504,0.049,0.601l-0.6,0.048c-1.416,0.119-1.464,0.528-1.464,3.072v8.543
		c0,2.545,0.048,2.881,1.464,3.049l0.6,0.072c0.144,0.096,0.096,0.527-0.049,0.6c-1.199-0.049-2.015-0.073-2.975-0.073
		c-1.008,0-1.733,0.024-2.932,0.073c-0.144-0.073-0.192-0.457-0.048-0.6l0.507-0.072c1.417-0.168,1.465-0.504,1.465-3.049V99.838z"
		/>
	<path style="clip-path:url(#SVGID_00000054245599042160315470000011484094731166448780_);fill:#002361;" d="M211.585,107.949
		c0,0.721,0,3.576,0.073,4.199c-0.048,0.145-0.192,0.264-0.456,0.264c-0.288-0.406-0.984-1.246-3.072-3.623l-5.568-6.336
		c-0.648-0.744-2.281-2.712-2.784-3.238h-0.047c-0.097,0.287-0.122,0.838-0.122,1.558v5.233c0,1.127,0.025,4.248,0.433,4.966
		c0.145,0.266,0.624,0.409,1.224,0.457l0.744,0.073c0.143,0.191,0.119,0.48-0.048,0.599c-1.08-0.048-1.92-0.072-2.808-0.072
		c-1.007,0-1.656,0.024-2.495,0.072c-0.169-0.119-0.193-0.457-0.049-0.599l0.649-0.073c0.551-0.072,0.935-0.216,1.055-0.48
		c0.336-0.863,0.312-3.791,0.312-4.943V99.07c0-0.673-0.024-1.178-0.528-1.728c-0.336-0.336-0.912-0.505-1.488-0.577l-0.408-0.047
		c-0.144-0.144-0.144-0.503,0.049-0.601c1.008,0.072,2.279,0.072,2.711,0.072c0.384,0,0.792-0.023,1.104-0.072
		c0.481,1.225,3.312,4.393,4.103,5.281l2.329,2.615c1.656,1.848,2.831,3.192,3.96,4.344h0.048c0.096-0.119,0.096-0.504,0.096-1.008
		v-5.136c0-1.128-0.024-4.247-0.48-4.968c-0.144-0.216-0.527-0.36-1.487-0.48l-0.408-0.047c-0.169-0.144-0.145-0.529,0.046-0.601
		c1.105,0.049,1.92,0.072,2.833,0.072c1.033,0,1.656-0.023,2.471-0.072c0.193,0.121,0.193,0.457,0.049,0.601l-0.336,0.047
		c-0.768,0.12-1.248,0.313-1.345,0.504c-0.408,0.864-0.36,3.84-0.36,4.944V107.949z"/>
	<path style="clip-path:url(#SVGID_00000054245599042160315470000011484094731166448780_);fill:#002361;" d="M217.889,112.412
		c-2.017,0-3.288-0.623-3.745-0.887c-0.287-0.529-0.6-2.232-0.649-3.359c0.122-0.17,0.482-0.217,0.577-0.072
		c0.36,1.222,1.344,3.576,4.129,3.576c2.015,0,3-1.321,3-2.76c0-1.057-0.217-2.232-1.969-3.361l-2.279-1.489
		c-1.201-0.791-2.593-2.16-2.593-4.127c0-2.28,1.776-4.127,4.897-4.127c0.743,0,1.607,0.144,2.232,0.311
		c0.312,0.098,0.647,0.145,0.838,0.145c0.217,0.575,0.433,1.92,0.433,2.927c-0.097,0.145-0.479,0.216-0.6,0.073
		c-0.312-1.153-0.959-2.713-3.263-2.713c-2.353,0-2.857,1.56-2.857,2.666c0,1.39,1.153,2.398,2.039,2.951l1.921,1.199
		c1.512,0.936,3,2.328,3,4.608C223,110.613,221.008,112.412,217.889,112.412"/>
</g>
<g>
	<defs>
		<rect id="SVGID_00000140727145959324020300000004416172232699790771_" width="266" height="188"/>
	</defs>
	<clipPath id="SVGID_00000030463516545656667250000017298431411665084298_">
		<use xlink:href="#SVGID_00000140727145959324020300000004416172232699790771_"  style="overflow:visible;"/>
	</clipPath>
	<path style="clip-path:url(#SVGID_00000030463516545656667250000017298431411665084298_);fill:#002361;" d="M77.431,124.619
		c0-1.302-0.025-1.501-0.744-1.562l-0.311-0.026c-0.074-0.049-0.049-0.272,0.025-0.309c0.608,0.024,1.005,0.037,1.563,0.037
		c0.484,0,0.906-0.013,1.44-0.037c0.074,0.037,0.099,0.26,0.024,0.309l-0.235,0.026c-0.72,0.074-0.745,0.26-0.745,1.562v1.427
		c0,0.236,0.025,0.471,0.162,0.471c0.111,0,0.26-0.074,0.347-0.136c0.174-0.149,0.496-0.471,0.633-0.596l1.339-1.327
		c0.236-0.223,0.844-0.856,0.968-1.029c0.062-0.087,0.087-0.15,0.087-0.199s-0.05-0.086-0.211-0.124l-0.335-0.075
		c-0.087-0.087-0.074-0.248,0.025-0.309c0.434,0.024,0.93,0.037,1.364,0.037s0.856-0.013,1.228-0.037
		c0.087,0.061,0.1,0.235,0.025,0.309c-0.322,0.026-0.806,0.15-1.153,0.348c-0.348,0.198-1.042,0.781-1.737,1.439l-1.117,1.054
		c-0.173,0.174-0.285,0.286-0.285,0.385c0,0.087,0.075,0.186,0.236,0.385c1.178,1.352,2.134,2.468,3.101,3.486
		c0.298,0.297,0.571,0.459,0.992,0.508l0.335,0.038c0.087,0.061,0.062,0.272-0.025,0.309c-0.322-0.024-0.806-0.037-1.389-0.037
		c-0.508,0-0.943,0.013-1.513,0.037c-0.087-0.024-0.124-0.235-0.05-0.309l0.286-0.05c0.173-0.025,0.297-0.063,0.297-0.124
		c0-0.075-0.087-0.174-0.173-0.285c-0.236-0.298-0.559-0.633-1.03-1.167l-0.992-1.116c-0.708-0.794-0.906-1.042-1.204-1.042
		c-0.186,0-0.211,0.161-0.211,0.595v1.601c0,1.302,0.025,1.475,0.72,1.55l0.335,0.038c0.074,0.049,0.049,0.272-0.025,0.309
		c-0.608-0.024-1.03-0.037-1.514-0.037c-0.508,0-0.93,0.013-1.439,0.037c-0.074-0.037-0.099-0.223-0.024-0.309l0.248-0.038
		c0.657-0.099,0.682-0.248,0.682-1.55V124.619z"/>
	<path style="clip-path:url(#SVGID_00000030463516545656667250000017298431411665084298_);fill:#002361;" d="M86.42,124.632
		c0-1.179-0.037-1.39-0.546-1.452l-0.397-0.049c-0.087-0.062-0.087-0.261,0.013-0.311c0.694-0.062,1.55-0.099,2.766-0.099
		c0.769,0,1.501,0.062,2.072,0.372c0.595,0.311,1.029,0.869,1.029,1.737c0,1.179-0.93,1.824-1.55,2.072
		c-0.062,0.074,0,0.198,0.062,0.298c0.992,1.6,1.649,2.593,2.493,3.3c0.211,0.185,0.521,0.322,0.856,0.346
		c0.062,0.026,0.074,0.124,0.013,0.174c-0.112,0.037-0.311,0.063-0.546,0.063c-1.055,0-1.687-0.311-2.568-1.564
		c-0.323-0.459-0.831-1.314-1.216-1.873c-0.186-0.273-0.384-0.397-0.881-0.397c-0.558,0-0.583,0.012-0.583,0.273v1.564
		c0,1.301,0.025,1.451,0.745,1.549l0.26,0.039c0.075,0.061,0.05,0.272-0.025,0.309c-0.558-0.024-0.98-0.037-1.476-0.037
		c-0.521,0-0.968,0.013-1.551,0.037c-0.074-0.037-0.099-0.223-0.025-0.309l0.311-0.039c0.719-0.086,0.744-0.248,0.744-1.549V124.632
		z M87.438,126.406c0,0.223,0,0.359,0.038,0.409c0.037,0.037,0.223,0.062,0.856,0.062c0.446,0,0.918-0.049,1.277-0.323
		c0.335-0.26,0.621-0.694,0.621-1.538c0-0.98-0.608-1.91-1.985-1.91c-0.769,0-0.807,0.049-0.807,0.397V126.406z"/>
	<path style="clip-path:url(#SVGID_00000030463516545656667250000017298431411665084298_);fill:#002361;" d="M95.039,124.645
		c0-1.315-0.025-1.526-0.757-1.588l-0.31-0.025c-0.074-0.049-0.05-0.273,0.025-0.31c0.62,0.025,1.042,0.037,1.563,0.037
		c0.496,0,0.918-0.012,1.538-0.037c0.075,0.037,0.1,0.261,0.025,0.31l-0.31,0.025c-0.732,0.062-0.757,0.273-0.757,1.588v4.416
		c0,1.315,0.025,1.488,0.757,1.575l0.31,0.038c0.075,0.049,0.05,0.273-0.025,0.31c-0.62-0.025-1.042-0.037-1.538-0.037
		c-0.521,0-0.943,0.012-1.563,0.037c-0.075-0.037-0.099-0.235-0.025-0.31l0.31-0.038c0.732-0.087,0.757-0.26,0.757-1.575V124.645z"
		/>
	<path style="clip-path:url(#SVGID_00000030463516545656667250000017298431411665084298_);fill:#002361;" d="M99.849,124.619
		c0-1.29-0.025-1.475-0.757-1.562l-0.198-0.026c-0.075-0.049-0.05-0.272,0.025-0.309c0.533,0.024,0.955,0.037,1.463,0.037h2.333
		c0.794,0,1.526,0,1.674-0.037c0.075,0.211,0.149,1.103,0.199,1.649c-0.05,0.075-0.248,0.1-0.31,0.025
		c-0.186-0.583-0.298-1.017-0.943-1.178c-0.26-0.063-0.657-0.074-1.203-0.074h-0.894c-0.372,0-0.372,0.024-0.372,0.496v2.48
		c0,0.348,0.038,0.348,0.41,0.348h0.719c0.521,0,0.906-0.025,1.055-0.074c0.149-0.05,0.235-0.125,0.298-0.435l0.099-0.508
		c0.062-0.075,0.273-0.075,0.322,0.012c0,0.298-0.049,0.782-0.049,1.253c0,0.447,0.049,0.918,0.049,1.191
		c-0.049,0.087-0.26,0.087-0.322,0.012l-0.112-0.484c-0.05-0.223-0.136-0.409-0.384-0.471c-0.174-0.05-0.472-0.062-0.956-0.062
		h-0.719c-0.372,0-0.41,0.012-0.41,0.335v1.749c0,0.658,0.038,1.079,0.236,1.29c0.149,0.149,0.409,0.285,1.501,0.285
		c0.955,0,1.315-0.049,1.588-0.185c0.223-0.124,0.558-0.559,0.881-1.204c0.087-0.062,0.26-0.025,0.31,0.087
		c-0.087,0.434-0.397,1.389-0.558,1.724c-1.117-0.024-2.221-0.037-3.325-0.037h-1.117c-0.533,0-0.955,0.013-1.687,0.037
		c-0.074-0.037-0.099-0.235-0.025-0.309l0.41-0.038c0.707-0.062,0.769-0.248,0.769-1.55V124.619z"/>
	<path style="clip-path:url(#SVGID_00000030463516545656667250000017298431411665084298_);fill:#002361;" d="M113.839,129.681
		c0,0.496,0.075,0.794,0.298,0.881c0.037,0.037,0.037,0.112-0.012,0.149c-0.149,0-0.373,0.049-0.608,0.112
		c-0.658,0.173-1.551,0.322-2.221,0.322c-1.476,0-2.829-0.409-3.784-1.377c-0.744-0.744-1.141-1.725-1.141-2.816
		c0-1.054,0.347-2.122,1.116-2.94c0.831-0.868,2.06-1.451,3.933-1.451c0.707,0,1.365,0.136,1.576,0.185
		c0.235,0.05,0.62,0.137,0.769,0.113c0,0.409,0.074,1.053,0.186,1.799c-0.037,0.098-0.261,0.111-0.335,0.037
		c-0.347-1.34-1.278-1.762-2.543-1.762c-2.407,0-3.462,1.712-3.462,3.572c0,2.382,1.229,4.255,3.722,4.255
		c0.769,0,1.228-0.161,1.365-0.372c0.062-0.087,0.124-0.31,0.124-0.707v-0.496c0-1.042-0.037-1.116-0.806-1.203l-0.546-0.063
		c-0.1-0.049-0.087-0.272,0-0.309c0.359,0.024,1.042,0.037,1.774,0.037c0.484,0,0.905-0.013,1.315-0.037
		c0.087,0.05,0.099,0.235,0.012,0.309l-0.198,0.026c-0.521,0.061-0.534,0.409-0.534,1.042V129.681z"/>
	<path style="clip-path:url(#SVGID_00000030463516545656667250000017298431411665084298_);fill:#002361;" d="M116.949,124.619
		c0-1.29-0.025-1.475-0.757-1.562l-0.198-0.026c-0.075-0.049-0.05-0.272,0.025-0.309c0.533,0.024,0.955,0.037,1.463,0.037h2.333
		c0.794,0,1.526,0,1.675-0.037c0.074,0.211,0.148,1.103,0.198,1.649c-0.05,0.075-0.248,0.1-0.31,0.025
		c-0.186-0.583-0.298-1.017-0.943-1.178c-0.26-0.063-0.657-0.074-1.203-0.074h-0.894c-0.372,0-0.372,0.024-0.372,0.496v2.48
		c0,0.348,0.038,0.348,0.41,0.348h0.719c0.521,0,0.906-0.025,1.055-0.074c0.149-0.05,0.236-0.125,0.298-0.435l0.099-0.508
		c0.062-0.075,0.273-0.075,0.322,0.012c0,0.298-0.049,0.782-0.049,1.253c0,0.447,0.049,0.918,0.049,1.191
		c-0.049,0.087-0.26,0.087-0.322,0.012l-0.112-0.484c-0.049-0.223-0.136-0.409-0.384-0.471c-0.174-0.05-0.472-0.062-0.956-0.062
		h-0.719c-0.372,0-0.41,0.012-0.41,0.335v1.749c0,0.658,0.038,1.079,0.236,1.29c0.149,0.149,0.409,0.285,1.501,0.285
		c0.955,0,1.315-0.049,1.588-0.185c0.223-0.124,0.558-0.559,0.881-1.204c0.087-0.062,0.26-0.025,0.31,0.087
		c-0.087,0.434-0.397,1.389-0.558,1.724c-1.117-0.024-2.221-0.037-3.325-0.037h-1.117c-0.533,0-0.955,0.013-1.687,0.037
		c-0.074-0.037-0.099-0.235-0.025-0.309l0.41-0.038c0.707-0.062,0.769-0.248,0.769-1.55V124.619z"/>
	<path style="clip-path:url(#SVGID_00000030463516545656667250000017298431411665084298_);fill:#002361;" d="M124.811,124.632
		c0-1.179-0.037-1.39-0.546-1.452l-0.397-0.049c-0.087-0.062-0.087-0.261,0.013-0.311c0.694-0.062,1.55-0.099,2.766-0.099
		c0.769,0,1.501,0.062,2.072,0.372c0.595,0.311,1.029,0.869,1.029,1.737c0,1.179-0.93,1.824-1.55,2.072
		c-0.062,0.074,0,0.198,0.062,0.298c0.992,1.6,1.65,2.593,2.493,3.3c0.211,0.185,0.521,0.322,0.856,0.346
		c0.062,0.026,0.074,0.124,0.012,0.174c-0.111,0.037-0.31,0.063-0.545,0.063c-1.055,0-1.687-0.311-2.568-1.564
		c-0.323-0.459-0.831-1.314-1.216-1.873c-0.186-0.273-0.384-0.397-0.881-0.397c-0.558,0-0.583,0.012-0.583,0.273v1.564
		c0,1.301,0.025,1.451,0.745,1.549l0.26,0.039c0.075,0.061,0.05,0.272-0.025,0.309c-0.558-0.024-0.98-0.037-1.476-0.037
		c-0.521,0-0.968,0.013-1.551,0.037c-0.074-0.037-0.099-0.223-0.025-0.309l0.311-0.039c0.719-0.086,0.744-0.248,0.744-1.549V124.632
		z M125.828,126.406c0,0.223,0,0.359,0.038,0.409c0.037,0.037,0.223,0.062,0.856,0.062c0.446,0,0.918-0.049,1.277-0.323
		c0.335-0.26,0.62-0.694,0.62-1.538c0-0.98-0.607-1.91-1.984-1.91c-0.769,0-0.807,0.049-0.807,0.397V126.406z"/>
	<path style="clip-path:url(#SVGID_00000030463516545656667250000017298431411665084298_);fill:#002361;" d="M138.34,131.145
		c-1.042,0-1.7-0.322-1.935-0.459c-0.149-0.272-0.311-1.153-0.335-1.736c0.062-0.087,0.248-0.113,0.297-0.037
		c0.187,0.632,0.695,1.847,2.134,1.847c1.042,0,1.551-0.681,1.551-1.426c0-0.545-0.112-1.154-1.017-1.737l-1.179-0.768
		c-0.62-0.411-1.34-1.118-1.34-2.134c0-1.179,0.918-2.134,2.531-2.134c0.385,0,0.831,0.074,1.154,0.161
		c0.161,0.05,0.335,0.074,0.434,0.074c0.112,0.298,0.223,0.993,0.223,1.514c-0.049,0.074-0.248,0.111-0.31,0.037
		c-0.161-0.596-0.496-1.402-1.687-1.402c-1.216,0-1.476,0.806-1.476,1.378c0,0.718,0.595,1.24,1.054,1.525l0.993,0.62
		c0.781,0.485,1.551,1.203,1.551,2.382C140.983,130.215,139.953,131.145,138.34,131.145"/>
	<path style="clip-path:url(#SVGID_00000030463516545656667250000017298431411665084298_);fill:#002361;" d="M144.328,123.614
		c0.906-0.707,2.06-1.054,3.35-1.054c0.67,0,1.612,0.136,2.195,0.298c0.149,0.037,0.236,0.062,0.348,0.049
		c0.012,0.286,0.074,1.067,0.173,1.824c-0.062,0.087-0.248,0.099-0.334,0.025c-0.187-0.844-0.745-1.812-2.544-1.812
		c-1.898,0-3.51,1.204-3.51,3.772c0,2.605,1.65,4.043,3.684,4.043c1.6,0,2.307-1.041,2.593-1.773
		c0.087-0.063,0.273-0.037,0.322,0.05c-0.086,0.644-0.409,1.464-0.595,1.699c-0.149,0.024-0.298,0.074-0.434,0.124
		c-0.273,0.1-1.166,0.285-1.96,0.285c-1.117,0-2.184-0.222-3.089-0.831c-0.993-0.682-1.762-1.811-1.762-3.411
		C142.765,125.525,143.385,124.346,144.328,123.614"/>
	<path style="clip-path:url(#SVGID_00000030463516545656667250000017298431411665084298_);fill:#002361;" d="M154.695,126.939
		c-0.596,0-0.621,0.024-0.621,0.396v1.75c0,1.302,0.062,1.476,0.757,1.55l0.36,0.038c0.074,0.049,0.05,0.273-0.025,0.31
		c-0.67-0.024-1.092-0.037-1.576-0.037c-0.533,0-0.955,0.024-1.438,0.037c-0.075-0.037-0.1-0.235-0.025-0.31l0.211-0.038
		c0.694-0.124,0.719-0.248,0.719-1.55v-4.466c0-1.302-0.087-1.513-0.732-1.563l-0.322-0.025c-0.075-0.049-0.05-0.273,0.025-0.31
		c0.607,0.013,1.029,0.037,1.562,0.037c0.484,0,0.906-0.012,1.44-0.037c0.074,0.037,0.099,0.261,0.024,0.31l-0.235,0.025
		c-0.72,0.074-0.745,0.261-0.745,1.563v1.426c0,0.385,0.025,0.398,0.621,0.398h3.548c0.595,0,0.62-0.013,0.62-0.398v-1.426
		c0-1.302-0.025-1.489-0.757-1.563l-0.235-0.025c-0.075-0.049-0.05-0.273,0.024-0.31c0.571,0.025,0.993,0.037,1.502,0.037
		c0.483,0,0.905-0.012,1.463-0.037c0.075,0.037,0.1,0.261,0.025,0.31l-0.26,0.025c-0.72,0.074-0.745,0.261-0.745,1.563v4.466
		c0,1.302,0.025,1.463,0.745,1.55l0.298,0.038c0.074,0.049,0.049,0.273-0.025,0.31c-0.596-0.024-1.018-0.037-1.501-0.037
		c-0.509,0-0.956,0.013-1.502,0.037c-0.074-0.037-0.099-0.235-0.024-0.31l0.235-0.038c0.757-0.124,0.757-0.248,0.757-1.55v-1.75
		c0-0.372-0.025-0.396-0.62-0.396H154.695z"/>
	<path style="clip-path:url(#SVGID_00000030463516545656667250000017298431411665084298_);fill:#002361;" d="M162.519,126.939
		c0-2.481,1.86-4.379,4.416-4.379c2.865,0,4.304,2.072,4.304,4.255c0,2.506-1.91,4.329-4.304,4.329
		C164.181,131.144,162.519,129.172,162.519,126.939 M169.999,127.2c0-2.047-0.906-4.256-3.275-4.256
		c-1.29,0-2.965,0.881-2.965,3.598c0,1.836,0.893,4.218,3.337,4.218C168.585,130.76,169.999,129.643,169.999,127.2"/>
	<path style="clip-path:url(#SVGID_00000030463516545656667250000017298431411665084298_);fill:#002361;" d="M172.997,126.939
		c0-2.481,1.86-4.379,4.416-4.379c2.865,0,4.304,2.072,4.304,4.255c0,2.506-1.91,4.329-4.304,4.329
		C174.659,131.144,172.997,129.172,172.997,126.939 M180.477,127.2c0-2.047-0.906-4.256-3.275-4.256
		c-1.29,0-2.965,0.881-2.965,3.598c0,1.836,0.893,4.218,3.337,4.218C179.062,130.76,180.477,129.643,180.477,127.2"/>
	<path style="clip-path:url(#SVGID_00000030463516545656667250000017298431411665084298_);fill:#002361;" d="M184.392,124.619
		c0-1.302-0.025-1.501-0.806-1.562l-0.311-0.026c-0.074-0.049-0.049-0.272,0.025-0.309c0.695,0.024,1.117,0.037,1.613,0.037
		c0.484,0,0.906-0.013,1.526-0.037c0.074,0.037,0.099,0.26,0.025,0.309l-0.298,0.026c-0.732,0.061-0.757,0.26-0.757,1.562v4.317
		c0,0.782,0.038,1.105,0.261,1.34c0.136,0.137,0.372,0.285,1.352,0.285c1.055,0,1.315-0.049,1.514-0.161
		c0.248-0.148,0.57-0.595,0.818-1.228c0.075-0.062,0.311-0.012,0.311,0.075c0,0.136-0.348,1.401-0.521,1.736
		c-0.633-0.024-1.812-0.037-3.09-0.037h-1.141c-0.521,0-0.918,0.013-1.613,0.037c-0.074-0.037-0.099-0.235-0.025-0.309l0.373-0.038
		c0.719-0.075,0.744-0.248,0.744-1.55V124.619z"/>
	<path style="clip-path:url(#SVGID_00000030463516545656667250000017298431411665084298_);fill:#002361;" d="M76.124,140.938
		c-0.037,0.681-0.397,1.873-1.315,2.815c-0.769,0.794-1.439,0.857-1.774,0.857c-0.794,0-1.315-0.583-1.241-1.651
		c0.05-0.768,0.509-1.971,1.352-2.778c0.646-0.62,1.204-0.807,1.712-0.807C75.739,139.374,76.174,140.031,76.124,140.938
		 M73.866,140.342c-0.72,0.968-1.203,2.443-1.241,3.102c-0.025,0.433,0.149,0.794,0.509,0.794c0.273,0,0.583-0.113,0.98-0.646
		c0.546-0.731,1.129-2.369,1.154-3.026c0.012-0.385-0.062-0.82-0.496-0.82C74.523,139.746,74.226,139.859,73.866,140.342"/>
	<path style="clip-path:url(#SVGID_00000030463516545656667250000017298431411665084298_);fill:#002361;" d="M79.719,140.007
		c-0.074,0.211-0.173,0.607-0.322,1.153c-0.372,1.39-0.707,2.581-1.104,3.946c-0.323,1.116-0.732,1.749-0.98,1.997
		c-0.186,0.174-0.757,0.67-1.489,0.67c-0.67,0-0.906-0.422-0.906-0.608c0-0.248,0.149-0.459,0.286-0.558
		c0.099-0.075,0.21-0.038,0.285,0.049c0.298,0.31,0.67,0.509,0.943,0.509c0.248,0,0.508-0.087,0.794-1.042
		c0.57-1.96,1.005-4.094,1.6-6.116h-1.03c-0.124-0.111-0.074-0.348,0.087-0.459h1.067c0.323-1.116,0.658-2.084,1.39-2.952
		c0.62-0.733,1.265-1.03,1.984-1.03c0.459,0,0.955,0.323,0.955,0.819c0,0.322-0.335,0.707-0.533,0.707
		c-0.112,0-0.161-0.112-0.173-0.199c-0.038-0.682-0.385-0.906-0.695-0.906c-0.273,0-0.608,0.249-0.893,0.67
		c-0.571,0.831-0.819,1.712-1.154,2.891h1.55c0.087,0.137,0.063,0.322-0.124,0.459H79.719z"/>
	<path style="clip-path:url(#SVGID_00000030463516545656667250000017298431411665084298_);fill:#002361;" d="M89.788,141.558
		c-0.086-0.274-0.136-0.311-0.508-0.311h-1.874c-0.31,0-0.384,0.037-0.471,0.298l-0.434,1.303c-0.186,0.558-0.273,0.893-0.273,1.029
		c0,0.149,0.062,0.224,0.36,0.248l0.409,0.038c0.087,0.061,0.087,0.26-0.025,0.31c-0.322-0.025-0.707-0.025-1.29-0.038
		c-0.41,0-0.856,0.025-1.191,0.038c-0.074-0.05-0.099-0.249-0.025-0.31l0.41-0.038c0.297-0.024,0.57-0.161,0.744-0.608
		c0.223-0.57,0.571-1.377,1.092-2.766l1.265-3.35c0.174-0.446,0.248-0.681,0.211-0.881c0.298-0.087,0.509-0.309,0.645-0.47
		c0.075,0,0.161,0.024,0.186,0.111c0.161,0.546,0.36,1.116,0.546,1.662l1.7,4.987c0.359,1.067,0.521,1.253,1.054,1.315l0.335,0.038
		c0.087,0.061,0.062,0.26,0,0.31c-0.508-0.025-0.943-0.038-1.501-0.038c-0.595,0-1.067,0.025-1.427,0.038
		c-0.099-0.05-0.111-0.249-0.024-0.31l0.359-0.038c0.261-0.024,0.435-0.099,0.435-0.223c0-0.136-0.063-0.36-0.162-0.658
		L89.788,141.558z M87.332,140.453c-0.099,0.285-0.087,0.298,0.26,0.298h1.526c0.36,0,0.385-0.05,0.273-0.385l-0.67-2.021
		c-0.099-0.298-0.211-0.633-0.285-0.783h-0.025c-0.037,0.063-0.161,0.361-0.297,0.733L87.332,140.453z"/>
	<path style="clip-path:url(#SVGID_00000030463516545656667250000017298431411665084298_);fill:#002361;" d="M94.673,138.122
		c0-1.179-0.037-1.39-0.546-1.452l-0.397-0.049c-0.087-0.062-0.087-0.261,0.013-0.311c0.694-0.061,1.55-0.099,2.766-0.099
		c0.769,0,1.501,0.062,2.072,0.372c0.595,0.31,1.029,0.869,1.029,1.737c0,1.179-0.93,1.824-1.55,2.072
		c-0.062,0.074,0,0.198,0.062,0.298c0.992,1.6,1.65,2.593,2.493,3.3c0.211,0.185,0.521,0.322,0.856,0.346
		c0.062,0.026,0.074,0.124,0.012,0.174c-0.111,0.037-0.31,0.063-0.545,0.063c-1.055,0-1.687-0.311-2.568-1.564
		c-0.323-0.459-0.831-1.314-1.216-1.873c-0.186-0.272-0.384-0.397-0.881-0.397c-0.558,0-0.583,0.012-0.583,0.273v1.564
		c0,1.302,0.025,1.451,0.745,1.55l0.26,0.038c0.075,0.061,0.05,0.272-0.025,0.309c-0.558-0.024-0.98-0.037-1.476-0.037
		c-0.521,0-0.968,0.013-1.551,0.037c-0.074-0.037-0.099-0.223-0.025-0.309l0.311-0.038c0.719-0.086,0.744-0.248,0.744-1.55V138.122z
		 M95.69,139.896c0,0.223,0,0.359,0.038,0.409c0.037,0.037,0.223,0.062,0.856,0.062c0.446,0,0.918-0.049,1.277-0.323
		c0.335-0.26,0.62-0.694,0.62-1.538c0-0.98-0.607-1.91-1.984-1.91c-0.769,0-0.807,0.049-0.807,0.397V139.896z"/>
	<path style="clip-path:url(#SVGID_00000030463516545656667250000017298431411665084298_);fill:#002361;" d="M105.71,142.575
		c0,1.302,0.025,1.488,0.745,1.55l0.397,0.038c0.074,0.049,0.049,0.272-0.025,0.31c-0.707-0.025-1.129-0.038-1.625-0.038
		s-0.931,0.013-1.725,0.038c-0.074-0.038-0.099-0.249,0-0.31l0.447-0.038c0.707-0.062,0.769-0.248,0.769-1.55v-5.546
		c0-0.385,0-0.396-0.372-0.396h-0.682c-0.534,0-1.216,0.024-1.526,0.309c-0.298,0.274-0.422,0.546-0.559,0.857
		c-0.099,0.074-0.273,0.012-0.322-0.087c0.198-0.559,0.384-1.353,0.471-1.849c0.037-0.024,0.199-0.037,0.236,0
		c0.074,0.398,0.484,0.385,1.055,0.385h5.024c0.669,0,0.781-0.025,0.967-0.348c0.062-0.024,0.199-0.011,0.223,0.037
		c-0.136,0.509-0.223,1.514-0.185,1.886c-0.05,0.1-0.261,0.1-0.323,0.025c-0.037-0.31-0.124-0.769-0.31-0.906
		c-0.285-0.211-0.757-0.309-1.439-0.309h-0.881c-0.372,0-0.36,0.011-0.36,0.422V142.575z"/>
	<path style="clip-path:url(#SVGID_00000030463516545656667250000017298431411665084298_);fill:#002361;" d="M112.58,144.634
		c-1.042,0-1.7-0.322-1.935-0.459c-0.149-0.273-0.311-1.153-0.335-1.736c0.062-0.087,0.248-0.113,0.297-0.037
		c0.186,0.632,0.695,1.847,2.134,1.847c1.042,0,1.551-0.681,1.551-1.426c0-0.546-0.112-1.154-1.017-1.737l-1.179-0.768
		c-0.62-0.411-1.34-1.118-1.34-2.134c0-1.179,0.918-2.134,2.531-2.134c0.385,0,0.831,0.074,1.154,0.161
		c0.161,0.05,0.335,0.074,0.434,0.074c0.112,0.298,0.223,0.992,0.223,1.514c-0.049,0.074-0.248,0.111-0.31,0.037
		c-0.161-0.596-0.496-1.402-1.687-1.402c-1.216,0-1.476,0.806-1.476,1.378c0,0.718,0.595,1.24,1.054,1.525l0.993,0.62
		c0.781,0.485,1.551,1.203,1.551,2.382C115.223,143.704,114.193,144.634,112.58,144.634"/>
	<path style="clip-path:url(#SVGID_00000030463516545656667250000017298431411665084298_);fill:#002361;" d="M124.646,137.03
		c0,0.273-0.211,0.496-0.472,0.496c-0.223,0-0.297-0.149-0.347-0.372c-0.037-0.162-0.199-0.36-0.447-0.36
		c-0.235,0-0.508,0.112-0.806,0.397c-0.509,0.484-0.62,1.166-0.62,1.576c0,0.248,0.024,0.433,0.074,0.533
		c0.161-0.161,0.546-0.435,1.017-0.435c0.819,0,1.08,0.583,1.08,1.031c0,0.657-0.521,1.029-1.08,1.029
		c-0.62,0-1.054-0.396-1.24-0.818c-0.174,0.248-0.323,0.644-0.323,1.264c0,1.08,0.831,2.457,2.841,2.457
		c0.757,0,1.452-0.249,1.948-0.632c0.583-0.448,1.154-1.34,1.154-2.295c0-0.794-0.199-1.216-0.273-1.303
		c-0.075-0.1-0.323-0.174-0.819-0.174c-0.471,0-0.918,0.273-0.918,0.844c0,0.235,0.161,0.347,0.248,0.347s0.137-0.049,0.199-0.162
		c0.074-0.111,0.148-0.235,0.335-0.235c0.223,0,0.384,0.174,0.384,0.397c0,0.334-0.335,0.508-0.67,0.508
		c-0.558,0-0.893-0.446-0.893-0.892c0-0.261,0.087-0.559,0.322-0.82c0.348-0.409,0.993-0.508,1.34-0.508
		c0.248,0,0.497,0.012,1.018,0.012c0.595,0,1.848-0.012,1.848-1.314c0-0.745-0.645-1.005-0.955-1.005
		c-0.186,0-0.248,0.173-0.248,0.223c0,0.062,0.025,0.112,0.124,0.186c0.099,0.074,0.26,0.186,0.26,0.409
		c0,0.372-0.273,0.522-0.533,0.522c-0.347,0-0.608-0.286-0.608-0.646c0-0.459,0.347-0.992,1.079-0.992
		c0.683,0,1.34,0.608,1.34,1.563c0,0.558-0.198,0.906-0.509,1.204c-0.595,0.557-1.649,0.508-1.798,0.508
		c-0.137,0-0.162,0.049-0.112,0.21c0.037,0.113,0.335,0.72,0.335,1.453c0,1.649-1.452,3.374-3.647,3.374
		c-2.593,0-3.338-1.799-3.338-3.015c0-0.707,0.261-1.401,0.695-1.923c-0.062-0.198-0.112-0.459-0.112-0.844
		c0-0.632,0.224-1.302,0.621-1.786c0.422-0.521,1.042-0.781,1.513-0.781C124.286,136.261,124.646,136.633,124.646,137.03
		 M122.14,139.635c0.124,0.434,0.446,0.794,0.943,0.794c0.322,0,0.595-0.198,0.595-0.533c0-0.311-0.223-0.658-0.695-0.658
		C122.537,139.238,122.202,139.548,122.14,139.635"/>
	<path style="clip-path:url(#SVGID_00000030463516545656667250000017298431411665084298_);fill:#002361;" d="M136.176,144.634
		c-1.042,0-1.7-0.322-1.935-0.459c-0.149-0.273-0.311-1.153-0.335-1.736c0.062-0.087,0.248-0.113,0.297-0.037
		c0.186,0.632,0.695,1.847,2.134,1.847c1.042,0,1.551-0.681,1.551-1.426c0-0.546-0.112-1.154-1.017-1.737l-1.179-0.768
		c-0.62-0.411-1.34-1.118-1.34-2.134c0-1.179,0.918-2.134,2.531-2.134c0.385,0,0.831,0.074,1.154,0.161
		c0.161,0.05,0.335,0.074,0.434,0.074c0.112,0.298,0.223,0.992,0.223,1.514c-0.049,0.074-0.248,0.111-0.31,0.037
		c-0.161-0.596-0.496-1.402-1.687-1.402c-1.216,0-1.476,0.806-1.476,1.378c0,0.718,0.595,1.24,1.054,1.525l0.993,0.62
		c0.781,0.485,1.551,1.203,1.551,2.382C138.819,143.704,137.789,144.634,136.176,144.634"/>
	<path style="clip-path:url(#SVGID_00000030463516545656667250000017298431411665084298_);fill:#002361;" d="M141.868,137.104
		c0.906-0.707,2.059-1.054,3.35-1.054c0.67,0,1.612,0.136,2.195,0.298c0.149,0.037,0.236,0.062,0.348,0.049
		c0.012,0.286,0.074,1.067,0.173,1.824c-0.062,0.087-0.248,0.099-0.335,0.025c-0.186-0.844-0.744-1.812-2.543-1.812
		c-1.898,0-3.511,1.204-3.511,3.772c0,2.605,1.651,4.043,3.685,4.043c1.6,0,2.307-1.041,2.593-1.773
		c0.087-0.062,0.273-0.037,0.322,0.05c-0.087,0.644-0.409,1.464-0.595,1.699c-0.149,0.024-0.298,0.074-0.434,0.124
		c-0.273,0.1-1.166,0.285-1.96,0.285c-1.117,0-2.184-0.222-3.089-0.831c-0.993-0.682-1.762-1.811-1.762-3.411
		C140.305,139.014,140.925,137.836,141.868,137.104"/>
	<path style="clip-path:url(#SVGID_00000030463516545656667250000017298431411665084298_);fill:#002361;" d="M150.597,138.134
		c0-1.315-0.025-1.526-0.757-1.588l-0.31-0.025c-0.074-0.049-0.05-0.273,0.025-0.31c0.62,0.025,1.042,0.037,1.563,0.037
		c0.496,0,0.918-0.012,1.538-0.037c0.075,0.037,0.1,0.261,0.025,0.31l-0.31,0.025c-0.732,0.062-0.757,0.273-0.757,1.588v4.416
		c0,1.315,0.025,1.489,0.757,1.575l0.31,0.038c0.075,0.049,0.05,0.273-0.025,0.31c-0.62-0.025-1.042-0.037-1.538-0.037
		c-0.521,0-0.943,0.012-1.563,0.037c-0.075-0.037-0.099-0.235-0.025-0.31l0.31-0.038c0.732-0.086,0.757-0.26,0.757-1.575V138.134z"
		/>
	<path style="clip-path:url(#SVGID_00000030463516545656667250000017298431411665084298_);fill:#002361;" d="M155.408,138.108
		c0-1.29-0.025-1.476-0.757-1.562l-0.198-0.026c-0.075-0.049-0.05-0.272,0.025-0.31c0.533,0.025,0.955,0.038,1.463,0.038h2.333
		c0.794,0,1.526,0,1.674-0.038c0.075,0.212,0.149,1.104,0.199,1.65c-0.05,0.075-0.248,0.1-0.31,0.025
		c-0.186-0.583-0.298-1.017-0.943-1.178c-0.26-0.063-0.657-0.075-1.203-0.075h-0.893c-0.373,0-0.373,0.025-0.373,0.496v2.481
		c0,0.348,0.038,0.348,0.41,0.348h0.719c0.521,0,0.906-0.025,1.055-0.075c0.149-0.049,0.235-0.124,0.297-0.434l0.1-0.508
		c0.062-0.075,0.273-0.075,0.322,0.012c0,0.298-0.049,0.782-0.049,1.253c0,0.447,0.049,0.918,0.049,1.191
		c-0.049,0.087-0.26,0.087-0.322,0.012l-0.112-0.484c-0.05-0.223-0.136-0.409-0.384-0.471c-0.174-0.05-0.472-0.062-0.956-0.062
		h-0.719c-0.372,0-0.41,0.012-0.41,0.335v1.749c0,0.657,0.038,1.079,0.236,1.29c0.149,0.149,0.409,0.285,1.501,0.285
		c0.955,0,1.315-0.049,1.588-0.185c0.223-0.124,0.558-0.559,0.881-1.204c0.087-0.062,0.26-0.025,0.31,0.087
		c-0.087,0.434-0.397,1.389-0.558,1.724c-1.117-0.024-2.221-0.037-3.325-0.037h-1.117c-0.533,0-0.955,0.013-1.687,0.037
		c-0.074-0.037-0.099-0.235-0.025-0.309l0.41-0.038c0.707-0.062,0.769-0.248,0.769-1.55V138.108z"/>
	<path style="clip-path:url(#SVGID_00000030463516545656667250000017298431411665084298_);fill:#002361;" d="M169.944,142.326
		c0,0.373,0,1.849,0.037,2.172c-0.025,0.074-0.099,0.136-0.236,0.136c-0.149-0.211-0.508-0.645-1.588-1.874l-2.877-3.275
		c-0.335-0.384-1.179-1.401-1.44-1.674h-0.024c-0.05,0.149-0.062,0.434-0.062,0.806v2.705c0,0.583,0.012,2.195,0.223,2.567
		c0.075,0.137,0.322,0.211,0.633,0.236l0.384,0.038c0.075,0.099,0.062,0.248-0.025,0.309c-0.558-0.024-0.992-0.037-1.451-0.037
		c-0.521,0-0.856,0.013-1.29,0.037c-0.087-0.061-0.099-0.235-0.025-0.309l0.335-0.038c0.285-0.037,0.484-0.112,0.546-0.248
		c0.174-0.447,0.161-1.96,0.161-2.555v-3.586c0-0.347-0.012-0.607-0.273-0.892c-0.173-0.174-0.471-0.261-0.769-0.298l-0.211-0.026
		c-0.074-0.074-0.074-0.26,0.025-0.309c0.521,0.037,1.179,0.037,1.402,0.037c0.198,0,0.409-0.013,0.57-0.037
		c0.249,0.633,1.712,2.269,2.122,2.729l1.203,1.352c0.856,0.955,1.464,1.65,2.047,2.245h0.024c0.05-0.062,0.05-0.26,0.05-0.521
		v-2.655c0-0.583-0.012-2.195-0.248-2.567c-0.074-0.112-0.273-0.187-0.769-0.248l-0.211-0.026c-0.087-0.074-0.074-0.272,0.025-0.309
		c0.57,0.024,0.992,0.037,1.464,0.037c0.533,0,0.855-0.013,1.277-0.037c0.1,0.061,0.1,0.235,0.025,0.309l-0.174,0.026
		c-0.397,0.061-0.645,0.161-0.694,0.26c-0.211,0.447-0.186,1.985-0.186,2.555V142.326z"/>
	<path style="clip-path:url(#SVGID_00000030463516545656667250000017298431411665084298_);fill:#002361;" d="M173.785,137.104
		c0.906-0.707,2.059-1.054,3.35-1.054c0.67,0,1.612,0.136,2.195,0.298c0.149,0.037,0.236,0.062,0.347,0.049
		c0.013,0.286,0.075,1.067,0.174,1.824c-0.062,0.087-0.248,0.099-0.335,0.025c-0.186-0.844-0.744-1.812-2.543-1.812
		c-1.898,0-3.51,1.204-3.51,3.772c0,2.605,1.65,4.043,3.684,4.043c1.6,0,2.307-1.041,2.592-1.773
		c0.087-0.062,0.273-0.037,0.323,0.05c-0.087,0.644-0.409,1.464-0.595,1.699c-0.149,0.024-0.298,0.074-0.435,0.124
		c-0.272,0.1-1.166,0.285-1.959,0.285c-1.117,0-2.184-0.222-3.089-0.831c-0.993-0.682-1.762-1.811-1.762-3.411
		C172.222,139.014,172.842,137.836,173.785,137.104"/>
	<path style="clip-path:url(#SVGID_00000030463516545656667250000017298431411665084298_);fill:#002361;" d="M182.515,138.108
		c0-1.29-0.025-1.476-0.757-1.562l-0.198-0.026c-0.075-0.049-0.05-0.272,0.025-0.31c0.533,0.025,0.955,0.038,1.463,0.038h2.333
		c0.794,0,1.526,0,1.675-0.038c0.074,0.212,0.148,1.104,0.198,1.65c-0.05,0.075-0.248,0.1-0.31,0.025
		c-0.186-0.583-0.298-1.017-0.943-1.178c-0.26-0.063-0.657-0.075-1.203-0.075h-0.893c-0.373,0-0.373,0.025-0.373,0.496v2.481
		c0,0.348,0.038,0.348,0.41,0.348h0.719c0.521,0,0.906-0.025,1.055-0.075c0.149-0.049,0.236-0.124,0.298-0.434l0.099-0.508
		c0.062-0.075,0.273-0.075,0.322,0.012c0,0.298-0.049,0.782-0.049,1.253c0,0.447,0.049,0.918,0.049,1.191
		c-0.049,0.087-0.26,0.087-0.322,0.012l-0.112-0.484c-0.049-0.223-0.136-0.409-0.384-0.471c-0.174-0.05-0.472-0.062-0.956-0.062
		h-0.719c-0.372,0-0.41,0.012-0.41,0.335v1.749c0,0.657,0.038,1.079,0.236,1.29c0.149,0.149,0.409,0.285,1.501,0.285
		c0.955,0,1.315-0.049,1.588-0.185c0.223-0.124,0.558-0.559,0.881-1.204c0.087-0.062,0.26-0.025,0.31,0.087
		c-0.087,0.434-0.397,1.389-0.558,1.724c-1.117-0.024-2.221-0.037-3.325-0.037h-1.117c-0.533,0-0.955,0.013-1.687,0.037
		c-0.074-0.037-0.099-0.235-0.025-0.309l0.41-0.038c0.707-0.062,0.769-0.248,0.769-1.55V138.108z"/>
	<path style="clip-path:url(#SVGID_00000030463516545656667250000017298431411665084298_);fill:#002361;" d="M191.567,144.634
		c-1.042,0-1.7-0.322-1.935-0.459c-0.149-0.273-0.311-1.153-0.335-1.736c0.062-0.087,0.248-0.113,0.297-0.037
		c0.187,0.632,0.695,1.847,2.134,1.847c1.042,0,1.551-0.681,1.551-1.426c0-0.546-0.112-1.154-1.017-1.737l-1.179-0.768
		c-0.62-0.411-1.34-1.118-1.34-2.134c0-1.179,0.918-2.134,2.531-2.134c0.385,0,0.831,0.074,1.154,0.161
		c0.161,0.05,0.335,0.074,0.434,0.074c0.112,0.298,0.223,0.992,0.223,1.514c-0.049,0.074-0.248,0.111-0.31,0.037
		c-0.161-0.596-0.496-1.402-1.687-1.402c-1.216,0-1.476,0.806-1.476,1.378c0,0.718,0.595,1.24,1.054,1.525l0.993,0.62
		c0.781,0.485,1.551,1.203,1.551,2.382C194.21,143.704,193.18,144.634,191.567,144.634"/>
</g>
</svg>
