<?xml version="1.0" encoding="UTF-8" standalone="no"?>
<!DOCTYPE svg PUBLIC "-//W3C//DTD SVG 1.1//EN" "http://www.w3.org/Graphics/SVG/1.1/DTD/svg11.dtd">
<svg width="100%" height="100%" viewBox="0 0 793 575" version="1.1" xmlns="http://www.w3.org/2000/svg" xmlns:xlink="http://www.w3.org/1999/xlink" xml:space="preserve" xmlns:serif="http://www.serif.com/" style="fill-rule:evenodd;clip-rule:evenodd;stroke-linejoin:round;stroke-miterlimit:1.41421;">
    <g transform="matrix(1,0,0,1,-1710.05,-1896.6)">
        <g transform="matrix(1,0,0,1,-181.001,-15.0476)">
            <g transform="matrix(-1,0,0,-1,4672.49,4643.85)">
                <path d="M2289.68,2338.58C2283.16,2342.27 2268.85,2356.69 2256.4,2362.16C2234.16,2371.93 2191.16,2391.52 2156.25,2397.21C2118.01,2403.44 2053.24,2398.45 2026.95,2399.55C2017.36,2399.96 2004.65,2402.66 1998.49,2403.83C1995.55,2404.39 1993.63,2405.37 1989.94,2406.56C1983.26,2408.7 2014.24,2401.97 2026.54,2401.81C2043.96,2401.59 2071.78,2405.47 2094.44,2405.2C2117.85,2404.93 2144.49,2404.32 2167.03,2400.2C2188.58,2396.26 2210.66,2388.26 2229.72,2380.48C2247.7,2373.14 2270.92,2359.33 2281.39,2353.5C2285.38,2351.28 2290.16,2347.75 2292.51,2345.5C2294.03,2344.06 2296,2341.17 2295.53,2340.01C2295.06,2338.86 2291.43,2337.59 2289.68,2338.58Z" style="fill:rgb(51,44,42);"/>
            </g>
            <g transform="matrix(-1,0,0,-1,4672.49,4643.85)">
                <path d="M2290.67,2360.24C2292.22,2359.16 2296.33,2359.87 2296.54,2361.89C2296.74,2363.76 2295.54,2367.79 2293.93,2371.49C2293.31,2372.9 2290.48,2376.83 2289.47,2377.7C2285.88,2380.8 2283.31,2383.52 2276.12,2387.54C2269.77,2391.1 2261.8,2394.04 2255.91,2397.01C2251.99,2398.98 2245.79,2401.15 2240.71,2403.46C2221.38,2412.22 2197.12,2422.98 2179.56,2432.68C2159.66,2443.68 2131.24,2462.87 2122.83,2470.53C2118.11,2474.84 2109.65,2495.27 2114.25,2482.36C2115.47,2478.94 2120.03,2469.65 2125.02,2465.02C2132.54,2458.04 2147.26,2447.68 2159.35,2440.48C2173.12,2432.27 2193.8,2422.84 2207.63,2415.77C2219.19,2409.86 2230.67,2403.79 2242.31,2398.05C2254.15,2392.22 2271.17,2385.73 2278.65,2380.79C2282.85,2378.02 2285.22,2371.81 2287.22,2368.39C2288.71,2365.84 2289.11,2361.33 2290.67,2360.24Z" style="fill:rgb(51,44,42);"/>
            </g>
            <g transform="matrix(-1,0,0,-1,4672.49,4643.85)">
                <path d="M2303.64,2318.87C2300.47,2315.2 2289.8,2306.85 2282.82,2300.92C2275.2,2294.43 2264.99,2286.89 2257.9,2279.99C2251.45,2273.71 2246.98,2264.1 2240.27,2259.52C2233.75,2255.06 2224.94,2253.89 2217.64,2252.47C2210.71,2251.11 2191.26,2249.86 2196.5,2250.97C2199.72,2251.65 2209.28,2253.02 2222.51,2255.44C2225.02,2255.89 2228.68,2256.33 2231.6,2257.62C2236.77,2259.91 2240.58,2264.15 2241.83,2265.86C2242.97,2267.42 2248.42,2274.79 2252.18,2278.86C2256.86,2283.92 2264.12,2290.28 2269.88,2296.21C2275.76,2302.27 2283.38,2310.98 2287.49,2315.22C2289.7,2317.5 2292.16,2320.35 2294.54,2321.63C2296.71,2322.8 2300.29,2323.38 2301.81,2322.92C2303.22,2322.49 2304.61,2319.99 2303.64,2318.87Z" style="fill:rgb(51,44,42);"/>
            </g>
            <g transform="matrix(0.479372,-0.0910156,0.0910156,0.479372,1304.08,1402.73)">
                <path d="M1760.42,1889.33C1757.7,1892.28 1760.83,1906.95 1762.36,1915.59C1764.16,1925.75 1766.92,1944.33 1771.24,1950.3C1774.57,1954.9 1785.37,1956.29 1788.26,1951.39C1791.15,1946.47 1790.2,1929.69 1788.6,1920.78C1787.13,1912.6 1783.35,1903.16 1778.65,1897.92C1774.17,1892.91 1763.13,1886.39 1760.42,1889.33Z"/>
            </g>
            <g transform="matrix(0.479372,-0.0910156,0.0910156,0.479372,1310.11,1401.39)">
                <path d="M1813.07,2071.07C1802.2,2043.59 1785.92,2018.29 1776.8,1990.19C1766.51,1958.45 1759.81,1914.58 1751.3,1880.66C1743.4,1849.15 1735.45,1817.63 1725.76,1786.63C1715.76,1754.61 1704.85,1720.4 1691.26,1688.5C1675.22,1650.85 1650.08,1586.8 1629.51,1560.72C1615.48,1542.93 1589.92,1537.27 1567.87,1532.02C1522.03,1521.11 1423.12,1492.06 1354.48,1495.22C1285.83,1498.38 1191.82,1515.81 1155.99,1550.99C1120.16,1586.17 1157.47,1666.58 1139.48,1706.3C1122.5,1743.8 1058.76,1749.57 1048.06,1789.32C1034.47,1839.79 1028.71,1942.34 1057.97,2009.12C1087.23,2075.9 1159.17,2146.16 1223.62,2189.97C1288.07,2233.78 1388.34,2249.23 1444.64,2271.98C1484.48,2288.06 1523.47,2313.96 1561.45,2326.42C1597.22,2338.16 1635.4,2352.98 1672.53,2346.78C1710.23,2340.48 1758.78,2318.97 1787.66,2288.64C1816.55,2258.31 1841.62,2201.04 1845.86,2164.78C1849.7,2131.91 1824.58,2100.17 1813.07,2071.07Z" style="fill:rgb(206,205,202);"/>
            </g>
            <g transform="matrix(0.479372,-0.0910156,0.0910156,0.479372,1310.11,1401.39)">
                <path d="M1083.08,1810.9C1052.72,1797.17 1003.09,1761.51 978.053,1726.85C953.017,1692.2 940.034,1646.34 932.864,1602.98C925.605,1559.08 925.452,1494.8 934.497,1463.45C941.117,1440.5 963.502,1418.27 987.138,1414.85C1011.1,1411.38 1053.24,1423.1 1078.28,1442.64C1104.71,1463.28 1128.62,1509.37 1145.75,1538.66C1160.43,1563.75 1172.41,1590.63 1181.08,1618.38C1190.2,1647.56 1203.94,1681.98 1200.46,1713.78C1196.98,1745.59 1179.75,1793 1160.18,1809.19C1140.62,1825.37 1106.5,1821.49 1083.08,1810.9Z" style="fill:rgb(156,143,134);"/>
            </g>
            <g transform="matrix(0.479372,-0.0910156,0.0910156,0.479372,1305.35,1397.98)">
                <path d="M1081.8,1448.08C1093.66,1452.18 1135.25,1475.45 1161.05,1490.78C1189.87,1507.91 1237.62,1529.34 1254.72,1550.82C1269.14,1568.92 1264.45,1598.41 1263.7,1619.67C1262.98,1639.75 1258.77,1660.52 1250.18,1678.4C1241.59,1696.28 1226.26,1735.92 1212.17,1726.93C1198.07,1717.94 1175.9,1652.89 1165.62,1624.45C1157.71,1602.56 1159.41,1577.79 1150.52,1556.29C1141.31,1534.01 1120.45,1505.8 1110.34,1490.78C1104.38,1481.93 1094.63,1473.28 1089.88,1466.16C1086.21,1460.67 1075.56,1445.92 1081.8,1448.08Z" style="fill:rgb(125,99,84);"/>
            </g>
            <g transform="matrix(0.473646,-0.117219,0.117219,0.473646,1256.46,1447.31)">
                <path d="M1734.08,1725.72C1742.05,1722.47 1787.71,1704.41 1800.76,1686.26C1813.82,1668.12 1811.97,1640.31 1812.41,1616.85C1812.92,1589.76 1807.9,1531.7 1803.84,1523.7C1799.78,1515.7 1792.71,1553.6 1788.04,1568.84C1782.69,1586.3 1777.15,1610.52 1771.73,1628.43C1766.85,1644.55 1758.63,1663.4 1755.51,1676.29C1753.18,1685.87 1756.55,1697.53 1752.98,1705.76C1749.41,1714 1726.12,1728.97 1734.08,1725.72Z" style="fill:rgb(156,143,134);"/>
            </g>
            <g transform="matrix(0.479372,-0.0910156,0.0910156,0.479372,1300.41,1402.04)">
                <path d="M1608.12,1538.89C1613.31,1514.46 1667.68,1474.23 1688.42,1453.02C1702.52,1438.6 1720.3,1420.86 1732.56,1411.63C1741.24,1405.09 1751.49,1394.91 1762.01,1397.64C1775.84,1401.23 1814.61,1411.78 1815.59,1433.19C1816.7,1457.52 1778.71,1508.21 1768.7,1543.66C1759.36,1576.71 1760.66,1622.57 1755.5,1645.85C1752.5,1659.35 1746.76,1673.82 1737.68,1683.31C1728.6,1692.81 1710.6,1712.8 1701.01,1702.81C1687.62,1688.86 1672.81,1626.94 1657.33,1599.62C1644.49,1576.95 1602.94,1563.33 1608.12,1538.89Z" style="fill:rgb(125,99,84);"/>
            </g>
            <g transform="matrix(0.479372,-0.0910156,0.0910156,0.479372,1310.59,1403.95)">
                <path d="M1522.78,1986.79C1525.95,1982.03 1519.6,1971.73 1519.23,1964.08C1518.75,1954.22 1522.27,1937.61 1519.9,1927.63C1517.76,1918.63 1512.32,1909.88 1505,1904.21C1496.22,1897.41 1479.55,1888.67 1467.23,1886.83C1455.14,1885.03 1440.19,1890.98 1431.11,1893.21C1424.75,1894.77 1419.03,1898.38 1412.75,1900.21C1406.23,1902.11 1394.62,1901.45 1392,1904.6C1389.39,1907.76 1395.98,1914.13 1397.07,1919.15C1398.47,1925.61 1397.48,1935.75 1400.39,1943.36C1404.08,1953.01 1410.99,1969.45 1419.2,1977.05C1427.2,1984.47 1439.1,1986.29 1449.66,1989C1460.4,1991.75 1475.18,1992.97 1483.6,1993.57C1489.12,1993.97 1494.73,1993.59 1500.18,1992.64C1506.71,1991.51 1519.6,1991.55 1522.78,1986.79Z" style="fill:rgb(100,100,99);"/>
            </g>
            <g transform="matrix(0.487936,0,0,0.487936,1429.84,1050.3)">
                <path d="M1535.2,2392.1C1540.7,2393.73 1550.24,2396.49 1557.97,2396.53C1566.82,2396.58 1581.75,2396.34 1588.29,2392.39C1594.42,2388.69 1595.96,2379.9 1597.2,2372.85C1598.45,2365.76 1598.86,2356.89 1595.78,2349.85C1592.5,2342.35 1584.4,2332.72 1577.52,2327.85C1570.96,2323.21 1562.55,2320.63 1554.51,2320.64C1544.41,2320.66 1525.5,2324.67 1516.92,2327.94C1511.15,2330.14 1504.65,2334.42 1503.08,2340.28C1501.52,2346.13 1504.25,2356.05 1507.54,2363.05C1511.19,2370.8 1520.35,2381.91 1524.96,2386.75C1527.61,2389.54 1531.51,2391.01 1535.2,2392.1Z"/>
            </g>
            <g transform="matrix(0.479372,-0.0910156,0.0910156,0.479372,1311.8,1402.36)">
                <path d="M1587.01,2317.46C1577.24,2309.91 1566.88,2301.07 1562.85,2289.4C1557.57,2274.14 1551.94,2243.6 1555.33,2225.84C1558.52,2209.06 1568.81,2192.09 1583.15,2182.82C1599.62,2172.17 1629.85,2166.29 1654.13,2161.97C1679.09,2157.54 1706.78,2159.58 1732.88,2156.2C1759.15,2152.8 1793.55,2140.6 1811.71,2141.55C1823.81,2142.19 1834.24,2140.14 1841.81,2161.93C1847.35,2177.89 1842.23,2181.25 1834.37,2206.97C1827.72,2228.74 1810.04,2250.4 1803.81,2263.68C1794.12,2284.32 1774.13,2299.44 1756.16,2312.74C1738.18,2326.05 1715.53,2337.62 1695.95,2343.49C1677.61,2349 1656.84,2352.36 1638.68,2348.02C1620.52,2343.68 1599.64,2327.22 1587.01,2317.46Z" style="fill:rgb(142,118,115);"/>
            </g>
            <g transform="matrix(-0.287346,0.394352,-0.394352,-0.287346,3737.06,2303.68)">
                <path d="M1781.77,2283.74C1775.12,2292.74 1759.71,2301.93 1754.31,2303.03C1741.96,2305.56 1717.43,2285.66 1697.18,2270.69C1673.01,2252.83 1645.76,2250.42 1641,2244.42C1630.75,2231.51 1635.99,2228.44 1641.51,2225.12C1650.69,2219.59 1678.43,2212.48 1696.08,2211.25C1713.29,2210.04 1732.91,2214.74 1747.41,2217.71C1759.64,2220.21 1775.23,2223.94 1783.09,2229.07C1789.4,2233.18 1794.8,2240.96 1794.62,2248.49C1794.4,2257.6 1788.49,2274.65 1781.77,2283.74Z" style="fill:rgb(211,167,156);"/>
            </g>
            <g transform="matrix(0.487936,0,0,0.487936,1429.84,1050.3)">
                <path d="M1526.41,2337.68C1530.37,2335.4 1537.44,2332.48 1543.39,2331.53C1549.77,2330.51 1561.14,2329.91 1564.7,2331.56C1566.35,2332.32 1571.75,2335.38 1571.56,2337.66C1571.41,2339.52 1565.98,2340.64 1564.73,2341.42C1561.77,2343.28 1552.79,2341.66 1546.97,2342.68C1541.14,2343.69 1534.36,2347.08 1529.8,2347.51C1526.33,2347.83 1520.18,2346.86 1519.61,2345.22C1519.05,2343.59 1523.47,2339.37 1526.41,2337.68Z" style="fill:white;fill-opacity:0.576471;"/>
            </g>
            <path d="M2289.68,2338.58C2283.16,2342.27 2268.85,2356.69 2256.4,2362.16C2234.16,2371.93 2191.16,2391.52 2156.25,2397.21C2118.01,2403.44 2053.24,2398.45 2026.95,2399.55C2017.36,2399.96 2004.65,2402.66 1998.49,2403.83C1995.55,2404.39 1993.63,2405.37 1989.94,2406.56C1983.26,2408.7 2014.24,2401.97 2026.54,2401.81C2043.96,2401.59 2071.78,2405.47 2094.44,2405.2C2117.85,2404.93 2144.49,2404.32 2167.03,2400.2C2188.58,2396.26 2210.66,2388.26 2229.72,2380.48C2247.7,2373.14 2270.92,2359.33 2281.39,2353.5C2285.38,2351.28 2290.16,2347.75 2292.51,2345.5C2294.03,2344.06 2296,2341.17 2295.53,2340.01C2295.06,2338.86 2291.43,2337.59 2289.68,2338.58Z" style="fill:rgb(51,44,42);"/>
            <path d="M2290.67,2360.24C2292.22,2359.16 2296.33,2359.87 2296.54,2361.89C2296.74,2363.76 2295.54,2367.79 2293.93,2371.49C2293.31,2372.9 2290.48,2376.83 2289.47,2377.7C2285.88,2380.8 2283.31,2383.52 2276.12,2387.54C2269.77,2391.1 2261.8,2394.04 2255.91,2397.01C2251.99,2398.98 2245.79,2401.15 2240.71,2403.46C2221.38,2412.22 2197.12,2422.98 2179.56,2432.68C2159.66,2443.68 2131.24,2462.87 2122.83,2470.53C2118.11,2474.84 2109.65,2495.27 2114.25,2482.36C2115.47,2478.94 2120.03,2469.65 2125.02,2465.02C2132.54,2458.04 2147.26,2447.68 2159.35,2440.48C2173.12,2432.27 2193.8,2422.84 2207.63,2415.77C2219.19,2409.86 2230.67,2403.79 2242.31,2398.05C2254.15,2392.22 2271.17,2385.73 2278.65,2380.79C2282.85,2378.02 2285.22,2371.81 2287.22,2368.39C2288.71,2365.84 2289.11,2361.33 2290.67,2360.24Z" style="fill:rgb(51,44,42);"/>
            <path d="M2303.64,2318.87C2300.47,2315.2 2289.8,2306.85 2282.82,2300.92C2275.2,2294.43 2264.99,2286.89 2257.9,2279.99C2251.45,2273.71 2246.98,2264.1 2240.27,2259.52C2233.75,2255.06 2224.94,2253.89 2217.64,2252.47C2210.71,2251.11 2191.26,2249.86 2196.5,2250.97C2199.72,2251.65 2209.28,2253.02 2222.51,2255.44C2225.02,2255.89 2228.68,2256.33 2231.6,2257.62C2236.77,2259.91 2240.58,2264.15 2241.83,2265.86C2242.97,2267.42 2248.42,2274.79 2252.18,2278.86C2256.86,2283.92 2264.12,2290.28 2269.88,2296.21C2275.76,2302.27 2283.38,2310.98 2287.49,2315.22C2289.7,2317.5 2292.16,2320.35 2294.54,2321.63C2296.71,2322.8 2300.29,2323.38 2301.81,2322.92C2303.22,2322.49 2304.61,2319.99 2303.64,2318.87Z" style="fill:rgb(51,44,42);"/>
        </g>
    </g>
</svg>
